<svg width="81" height="66" fill="none" xmlns="http://www.w3.org/2000/svg"><path d="M.552 43.224c0-8.448 2.112-16.512 6.336-24.192C11.304 11.352 16.968 5.016 23.88.024l10.656 8.64c-4.608 3.072-8.736 7.2-12.384 12.384-3.648 4.992-5.664 9.792-6.048 14.4h1.44c.96-.192 1.728-.288 2.304-.288 4.032 0 7.296 1.44 9.792 4.32 2.688 2.688 4.032 6.144 4.032 10.368s-1.536 7.872-4.608 10.944c-2.88 2.88-6.432 4.32-10.656 4.32-4.992 0-9.216-1.92-12.672-5.76C2.28 55.32.552 49.944.552 43.224zm46.08 0c0-8.448 2.112-16.512 6.336-24.192C57.384 11.352 63.048 5.016 69.96.024l10.656 8.64c-4.608 3.072-8.736 7.2-12.384 12.384-3.456 4.992-5.472 9.792-6.048 14.4h1.44c.96-.192 1.728-.288 2.304-.288 4.032 0 7.392 1.44 10.08 4.32 2.688 2.688 4.032 6.144 4.032 10.368s-1.536 7.872-4.608 10.944c-3.072 2.88-6.72 4.32-10.944 4.32-4.992 0-9.216-1.92-12.672-5.76-3.456-4.032-5.184-9.408-5.184-16.128z" fill="url(#paint0_linear)"/><defs><linearGradient id="paint0_linear" x1="3.791" y1="31.153" x2="80.749" y2="31.684" gradientUnits="userSpaceOnUse"><stop stop-color="#F44949"/><stop offset="1" stop-color="#D25CDC"/></linearGradient></defs></svg>