<svg width="64" height="64" fill="none" xmlns="http://www.w3.org/2000/svg"><circle cx="32" cy="32" r="32" fill="#fff"/><circle cx="32" cy="32" r="32" stroke="#000"/><path d="M23.259 33.904h2.556V21.052c.912-.216 1.884-.36 2.916-.432 1.056-.072 2.1-.108 3.132-.108 1.104 0 2.184.108 3.24.324 1.08.216 2.028.612 2.844 1.188.84.576 1.512 1.356 2.016 2.34.504.984.756 2.244.756 3.78 0 1.464-.24 2.712-.72 3.744a6.465 6.465 0 01-2.052 2.484c-.888.624-1.944 1.08-3.168 1.368-1.224.288-2.568.432-4.032.432h-1.944v2.556h5.976v2.232h-5.976V46h-2.988v-5.04h-2.556v-2.232h2.556v-2.556h-2.556v-2.268zm8.676-10.872c-.624 0-1.224.024-1.8.072a8.332 8.332 0 00-1.332.144v10.404h2.736c.696 0 1.404-.072 2.124-.216a5.361 5.361 0 001.944-.792c.576-.408 1.044-.96 1.404-1.656.36-.72.54-1.656.54-2.808 0-.984-.156-1.8-.468-2.448-.288-.672-.684-1.2-1.188-1.584a4.49 4.49 0 00-1.8-.864 8.884 8.884 0 00-2.16-.252z" fill="url(#paint0_linear)"/><defs><linearGradient id="paint0_linear" x1="21.89" y1="33.13" x2="43.037" y2="33.196" gradientUnits="userSpaceOnUse"><stop stop-color="#F44949"/><stop offset="1" stop-color="#D25CDC"/></linearGradient></defs></svg>