<?xml version="1.0" encoding="utf-8"?><svg xmlns="http://www.w3.org/2000/svg" xmlns:xlink="http://www.w3.org/1999/xlink"><symbol viewBox="0 0 175 54" id="3dlogo" xmlns="http://www.w3.org/2000/svg"><path d="M9.96 53.48c-2.027 0-3.84-.4-5.44-1.2-1.6-.8-2.84-1.84-3.72-3.12L4 45.8a7.697 7.697 0 002.56 2.16 6.981 6.981 0 003.16.76c1.36 0 2.373-.32 3.04-.96.693-.64 1.04-1.507 1.04-2.6 0-2.24-1.44-3.36-4.32-3.36-1.387 0-2.213.027-2.48.08v-4.84c.267.027 1.053.04 2.36.04 1.253 0 2.24-.253 2.96-.76.747-.533 1.12-1.307 1.12-2.32 0-1.093-.36-1.92-1.08-2.48-.693-.56-1.64-.84-2.84-.84-2.133 0-3.907.893-5.32 2.68l-3.04-3.12c2.053-2.88 4.987-4.32 8.8-4.32 2.693 0 4.827.627 6.4 1.88 1.573 1.253 2.36 3.04 2.36 5.36 0 1.493-.493 2.813-1.48 3.96-.96 1.12-2.147 1.827-3.56 2.12 1.467.213 2.733.907 3.8 2.08 1.093 1.173 1.64 2.613 1.64 4.32 0 2.347-.84 4.24-2.52 5.68-1.653 1.44-3.867 2.16-6.64 2.16zm64.164-42.572v-8.46h11.94V.396H72v25.2h6.036c4.932 0 9.936-1.224 9.936-7.344s-5.004-7.344-9.936-7.344h-3.912zm.036 12.636V12.96h3.984c3.924 0 7.668.612 7.668 5.292s-3.708 5.292-7.668 5.292H74.16zM91.916.396v25.2h14.992v-2.052H94.04v-9.612h11.536V11.88H94.04V2.448h12.616V.396h-14.74zm18.381 0v2.052h6.216v23.148h2.124V2.448h6.216V.396h-14.556zm15.343 12.6c0 6.408 4.32 12.996 13.104 12.996 8.784 0 13.104-6.588 13.104-12.996S147.528 0 138.744 0c-8.784 0-13.104 6.588-13.104 12.996zm24.048 0c0 5.472-3.564 10.98-10.944 10.98-7.38 0-10.944-5.508-10.944-10.98s3.564-10.98 10.944-10.98c7.38 0 10.944 5.508 10.944 10.98zm22.936-12.6v11.52H158.28V.396h-2.124v25.2h2.124V13.968h14.344v11.628h2.124V.396h-2.124zM42.32 0l-2.81 6H31v41h10.851l-2.808 6H25V0h17.32zm3.02 53H47c9.941 0 18-8.059 18-18V18C65 8.62 57.825.915 48.664.076L45.82 6H47c6.627 0 12 5.373 12 12v17c0 6.205-4.71 11.31-10.75 11.936L45.34 53z"/></symbol><symbol viewBox="0 0 15 15" id="arr-down" xmlns="http://www.w3.org/2000/svg"><path fill-rule="evenodd" clip-rule="evenodd" d="M7.802 14.368l6.538-6-.676-.736-5.662 5.195V1h-1v11.889l-5.66-5.255-.68.732 6.461 6a.5.5 0 00.679.002z"/></symbol><symbol viewBox="0 0 37 33" id="arr-left" xmlns="http://www.w3.org/2000/svg"><path d="M1 16.409l-.37-.336a.5.5 0 00-.002.67L1 16.409zM14.63.664l-14 15.409.74.672 14-15.409-.74-.672zM.628 16.743l14 15.591.744-.668-14-15.591-.744.668zM36 16.5H1.26"/></symbol><symbol viewBox="0 0 45 33" id="arr-right" xmlns="http://www.w3.org/2000/svg"><path d="M44 16.591l.37.336a.5.5 0 00.002-.67l-.372.334zM30.37 32.336l14-15.409-.74-.672-14 15.409.74.672zm14.002-16.079l-14-15.591-.744.668 14 15.591.744-.668zM0 16.5h43.425"/></symbol><symbol viewBox="0 0 16 33" id="arrow" xmlns="http://www.w3.org/2000/svg"><path d="M15 16.591l.37.336a.5.5 0 00.002-.67l-.372.334zM1.37 32.336l14-15.409-.74-.672-14 15.409.74.672zm14.002-16.079L1.372.666l-.744.668 14 15.591.744-.668z"/></symbol><symbol viewBox="0 0 36 36" id="btn-grid" xmlns="http://www.w3.org/2000/svg"><path fill-rule="evenodd" clip-rule="evenodd" d="M16 0H0v16h16V0zm20 0H20v16h16V0zM0 20h16v16H0V20zm36 0H20v16h16V20z"/></symbol><symbol viewBox="0 0 36 36" id="btn-list" xmlns="http://www.w3.org/2000/svg"><path fill-rule="evenodd" clip-rule="evenodd" d="M8 0H0v6h8V0zm28 0H13v6h23V0zM0 10h8v6H0v-6zm36 0H13v6h23v-6zM0 20h8v6H0v-6zm36 0H13v6h23v-6zM0 30h8v6H0v-6zm36 0H13v6h23v-6z"/></symbol><symbol viewBox="0 0 31 31" id="circle-plus" xmlns="http://www.w3.org/2000/svg"><path d="M15 15V8h1v7h7v1h-7v7h-1v-7H8v-1h7z"/><path fill-rule="evenodd" clip-rule="evenodd" d="M31 15.5C31 24.06 24.06 31 15.5 31 6.94 31 0 24.06 0 15.5 0 6.94 6.94 0 15.5 0 24.06 0 31 6.94 31 15.5zm-1 0C30 23.508 23.508 30 15.5 30S1 23.508 1 15.5 7.492 1 15.5 1 30 7.492 30 15.5z"/></symbol><symbol viewBox="0 0 27 27" id="close" xmlns="http://www.w3.org/2000/svg"><path d="M25.48.021l1.413 1.414L1.439 26.891.023 25.477 25.48.02z"/><path d="M.023 1.435L1.438.021l25.455 25.456-1.414 1.414L.023 1.435z"/></symbol><symbol viewBox="0 0 13 11" id="photo_camera" xmlns="http://www.w3.org/2000/svg"><path d="M3.924 8.279a3.022 3.022 0 002.178.888c.84 0 1.556-.296 2.148-.888.611-.611.917-1.337.917-2.177 0-.84-.306-1.557-.917-2.149-.592-.611-1.308-.917-2.148-.917-.84 0-1.566.306-2.178.917a2.927 2.927 0 00-.888 2.149c0 .84.296 1.566.888 2.177zM4.268 0h3.667l1.117 1.203H11c.325 0 .602.124.83.373.249.248.373.534.373.859v7.333c0 .325-.124.611-.372.86A1.09 1.09 0 0111 11H1.203a1.18 1.18 0 01-.86-.372A1.23 1.23 0 010 9.768V2.435c0-.325.115-.611.344-.86a1.18 1.18 0 01.86-.372H3.15L4.268 0zm.459 7.477a1.875 1.875 0 01-.573-1.375c0-.535.19-.993.573-1.375.382-.382.84-.573 1.375-.573.534 0 .993.19 1.375.573.382.382.572.84.572 1.375 0 .534-.19.993-.572 1.375-.382.382-.84.572-1.375.572s-.993-.19-1.375-.572z"/></symbol><symbol viewBox="0 0 14 14" id="shevron" xmlns="http://www.w3.org/2000/svg"><path d="M6.965 10l-.355.352a.5.5 0 00.707.003L6.965 10zM.645 4.353l5.965 6 .71-.706-5.965-6-.71.706zm6.672 6.002l6.035-6-.704-.71-6.036 6 .705.71z"/></symbol><symbol viewBox="0 0 6 10" id="shevron_r" xmlns="http://www.w3.org/2000/svg"><path d="M.506 8.504a.7.7 0 10.988.992l-.988-.992zM5 5.024l.494.496a.7.7 0 00.002-.99L5 5.024zM1.496.506a.7.7 0 10-.992.988l.992-.988zm-.002 8.99l4-3.976-.988-.993-4 3.977.988.992zM5.496 4.53l-4-4.024-.992.988 4 4.023.992-.987z"/></symbol></svg>